<?xml version="1.0" encoding="utf-8"?>
<!-- Svg Vector Icons : http://www.onlinewebfonts.com/icon -->
<!DOCTYPE svg PUBLIC "-//W3C//DTD SVG 1.1//EN" "http://www.w3.org/Graphics/SVG/1.1/DTD/svg11.dtd">
<svg version="1.1" xmlns="http://www.w3.org/2000/svg" xmlns:xlink="http://www.w3.org/1999/xlink" x="0px" y="0px" viewBox="0 0 1000 1000" enable-background="new 0 0 1000 1000" xml:space="preserve">
<metadata> Svg Vector Icons : http://www.onlinewebfonts.com/icon </metadata>
<g><path d="M934.8,10H65.2C34.8,10,10,34.8,10,65.2v782.9v119.4c0,12.4,10.1,22.5,22.5,22.5c12.4,0,22.5-10.1,22.5-22.5v-63.1c3.4,1.1,6.8,1.1,10.1,1.1h869.6c3.4,0,6.8,0,10.1-1.1v63.1c0,12.4,10.1,22.5,22.5,22.5c12.4,0,22.5-10.1,22.5-22.5V849.2v-784C990,34.8,965.2,10,934.8,10z M257.8,859.3V756.8c0-6.8-4.5-11.3-11.3-11.3s-11.3,4.5-11.3,11.3v102.5h-67.6v-55.2c0-6.8-4.5-11.3-11.3-11.3c-6.8,0-11.3,4.5-11.3,11.3v55.2h-80c-5.6,0-10.1-4.5-10.1-10.1V333.3h422.4v521.5c0,2.3,0,3.4,1.1,5.6H257.8V859.3z M944.9,849.2c0,5.6-4.5,10.1-10.1,10.1H521.4c0-2.3,1.1-3.4,1.1-5.6V333.3h422.4V849.2z M944.9,287.1H55.1V65.2c0-5.6,4.5-10.1,10.1-10.1h869.6c5.6,0,10.1,4.5,10.1,10.1V287.1z M560.8,146.3H439.2c-12.4,0-22.5,10.1-22.5,22.5c0,12.4,10.1,22.5,22.5,22.5h121.7c12.4,0,22.5-10.1,22.5-22.5C583.4,156.4,573.2,146.3,560.8,146.3z M639.7,656.6c12.4,0,22.5-10.1,22.5-22.5V562c0-12.4-10.1-22.5-22.5-22.5s-22.5,10.1-22.5,22.5V634C617.2,646.4,627.3,656.6,639.7,656.6z M360.3,539.4c-12.4,0-22.5,10.1-22.5,22.5V634c0,12.4,10.1,22.5,22.5,22.5c12.4,0,22.5-10.1,22.5-22.5V562C382.9,549.6,372.7,539.4,360.3,539.4z"/></g>
</svg>